<?xml version="1.0" encoding="UTF-8"?>
<svg width="16" height="16" version="1.1" viewBox="0 0 16 16" xmlns="http://www.w3.org/2000/svg">
 <g fill="#9c27b0">
  <path d="m8 2c-3.3137 0-6 2.6863-6 6s2.6863 6 6 6c1.0781 0 2.0845-0.29102 2.9551-0.79297-0.19922-0.44922-0.30078-0.93359-0.30078-1.4434 0-1.9492 1.5781-3.5273 3.5273-3.5273 0.28125 0 0.55078 0.042969 0.81836 0.10547v-0.33984c0-3.3137-2.6863-6-6-6zm0 2c2.2092 0 4 1.7909 4 4 0 2.2092-1.7908 4-4 4-2.2091 0-4-1.7908-4-4 0-2.2091 1.7909-4 4-4z"/>
  <path d="m14.182 9.2363c-1.3008 0-2.3516 1.0508-2.3516 2.3516 0 1.3008 1.0508 2.3516 2.3516 2.3516 1.3008 0 2.3516-1.0508 2.3516-2.3516 0-1.3008-1.0508-2.3516-2.3516-2.3516zm0 1.1758c0.65039 0 1.1758 0.52539 1.1758 1.1758s-0.52539 1.1758-1.1758 1.1758-1.1758-0.52539-1.1758-1.1758 0.52539-1.1758 1.1758-1.1758z"/>
 </g>
</svg>